<svg width="412" height="320" viewBox="0 0 412 320" fill="none" xmlns="http://www.w3.org/2000/svg">
<rect width="412" height="320" fill="white"/>
<path d="M119.3 176H101.9C91.95 176 84.7 169.45 84.7 159.75C84.7 150.05 91.95 143.5 101.9 143.5H119.3V151.85H101.3C96.75 151.85 93.4 155.05 93.4 159.75C93.4 164.4 96.75 167.6 101.3 167.6H111V163.15H100.45V156.2H119.3V176ZM144.363 167.6H150.263C154.813 167.6 158.113 164.4 158.113 159.75C158.113 155.05 154.813 151.85 150.263 151.85H144.363C139.813 151.85 136.463 155.05 136.463 159.75C136.463 164.4 139.763 167.6 144.363 167.6ZM149.663 176H144.963C135.013 176 127.763 169.45 127.763 159.75C127.763 150.05 135.013 143.5 144.963 143.5H149.663C159.563 143.5 166.813 150.05 166.813 159.75C166.813 169.45 159.563 176 149.663 176ZM183.994 176H175.244V143.5H183.994V176ZM217.402 176H192.702V167.6H217.002C218.252 167.6 219.152 166.8 219.152 165.4C219.152 164 218.252 163.15 217.002 163.15H202.702C196.652 163.15 192.302 159.15 192.302 153.35C192.302 147.45 196.652 143.5 202.702 143.5H227.402V151.85H203.102C201.852 151.85 201.002 152.6 201.002 154C201.002 155.35 201.852 156.2 203.102 156.2H217.402C223.502 156.2 227.852 160.25 227.852 166.05C227.852 172.05 223.502 176 217.402 176ZM282.295 176H273.595L268.795 155.1L263.145 172.9C262.545 175 261.095 176 259.045 176H256.395C254.295 176 252.895 175 252.295 172.9L246.645 154.75L241.845 176H233.195L239.795 147.2C240.345 144.5 241.845 143.5 244.045 143.5H247.695C249.745 143.5 251.195 144.5 251.845 146.65L257.745 166.1L263.595 146.65C264.245 144.5 265.645 143.5 267.695 143.5H271.345C273.545 143.5 275.045 144.5 275.645 147.2L282.295 176ZM304.113 167.6H310.013C314.563 167.6 317.863 164.4 317.863 159.75C317.863 155.05 314.563 151.85 310.013 151.85H304.113C299.563 151.85 296.213 155.05 296.213 159.75C296.213 164.4 299.513 167.6 304.113 167.6ZM309.413 176H304.713C294.763 176 287.513 169.45 287.513 159.75C287.513 150.05 294.763 143.5 304.713 143.5H309.413C319.313 143.5 326.563 150.05 326.563 159.75C326.563 169.45 319.313 176 309.413 176Z" fill="#0F2774"/>
</svg>
